# xmcd
#
# Track frame offsets:
#       150
#       22887
#       43465
#       65227
#       89665
#       106075
#       128787
#       152185
#       183890
#       207302
#
# Disc length: 3097 seconds
#
# Revision: 0
# Processed by: cddbd v1.5.1PL2 Copyright (c) Steve Scherf et al.
# Submitted via: CD-DA_X-Tractor v0.24
#
DISCID=8c0c170a
DTITLE=Earl Thomas and Blues Ambassador - New Blues for a New Generation
DYEAR=1900
DGENRE=Blues
TTITLE0=Don't do me this way again
TTITLE1=I'll be all right
TTITLE2=(I'm not) broken hearted
TTITLE3=I don't need
TTITLE4=Same old blues
TTITLE5=I idolize you
TTITLE6=Feelin' all blue
TTITLE7=Don't ask the time
TTITLE8=Don of that man
TTITLE9=Give me one reason
EXTD=
EXTT0=
EXTT1=
EXTT2=
EXTT3=
EXTT4=
EXTT5=
EXTT6=
EXTT7=
EXTT8=
EXTT9=
PLAYORDER=
